<svg width="441" height="455" viewBox="0 0 441 455" fill="none" xmlns="http://www.w3.org/2000/svg">
<path d="M6.60504 13.4829C10.2529 13.4829 13.2101 10.5235 13.2101 6.87282C13.2101 3.22213 10.2529 0.262695 6.60504 0.262695C2.95718 0.262695 0 3.22213 0 6.87282C0 10.5235 2.95718 13.4829 6.60504 13.4829Z" fill="#6DC2C4"/>
<path d="M49.5381 13.4829C53.1859 13.4829 56.1431 10.5235 56.1431 6.87282C56.1431 3.22213 53.1859 0.262695 49.5381 0.262695C45.8902 0.262695 42.933 3.22213 42.933 6.87282C42.933 10.5235 45.8902 13.4829 49.5381 13.4829Z" fill="#6DC2C4"/>
<path d="M92.4712 13.4829C96.1191 13.4829 99.0763 10.5235 99.0763 6.87282C99.0763 3.22213 96.1191 0.262695 92.4712 0.262695C88.8234 0.262695 85.8662 3.22213 85.8662 6.87282C85.8662 10.5235 88.8234 13.4829 92.4712 13.4829Z" fill="#6DC2C4"/>
<path d="M134.932 13.4829C138.58 13.4829 141.537 10.5235 141.537 6.87282C141.537 3.22213 138.58 0.262695 134.932 0.262695C131.284 0.262695 128.327 3.22213 128.327 6.87282C128.327 10.5235 131.284 13.4829 134.932 13.4829Z" fill="#6DC2C4"/>
<path d="M177.863 13.4829C181.511 13.4829 184.468 10.5235 184.468 6.87282C184.468 3.22213 181.511 0.262695 177.863 0.262695C174.215 0.262695 171.258 3.22213 171.258 6.87282C171.258 10.5235 174.215 13.4829 177.863 13.4829Z" fill="#6DC2C4"/>
<path d="M220.324 13.4829C223.972 13.4829 226.929 10.5235 226.929 6.87282C226.929 3.22213 223.972 0.262695 220.324 0.262695C216.676 0.262695 213.719 3.22213 213.719 6.87282C213.719 10.5235 216.676 13.4829 220.324 13.4829Z" fill="#6DC2C4"/>
<path d="M263.257 13.4829C266.905 13.4829 269.862 10.5235 269.862 6.87282C269.862 3.22213 266.905 0.262695 263.257 0.262695C259.609 0.262695 256.652 3.22213 256.652 6.87282C256.652 10.5235 259.609 13.4829 263.257 13.4829Z" fill="#6DC2C4"/>
<path d="M305.718 13.4829C309.366 13.4829 312.323 10.5235 312.323 6.87282C312.323 3.22213 309.366 0.262695 305.718 0.262695C302.07 0.262695 299.113 3.22213 299.113 6.87282C299.113 10.5235 302.07 13.4829 305.718 13.4829Z" fill="#6DC2C4"/>
<path d="M348.651 13.4829C352.299 13.4829 355.256 10.5235 355.256 6.87282C355.256 3.22213 352.299 0.262695 348.651 0.262695C345.003 0.262695 342.046 3.22213 342.046 6.87282C342.046 10.5235 345.003 13.4829 348.651 13.4829Z" fill="#6DC2C4"/>
<path d="M391.584 13.4829C395.232 13.4829 398.189 10.5235 398.189 6.87282C398.189 3.22213 395.232 0.262695 391.584 0.262695C387.936 0.262695 384.979 3.22213 384.979 6.87282C384.979 10.5235 387.936 13.4829 391.584 13.4829Z" fill="#6DC2C4"/>
<path d="M434.045 13.4829C437.693 13.4829 440.65 10.5235 440.65 6.87282C440.65 3.22213 437.693 0.262695 434.045 0.262695C430.397 0.262695 427.44 3.22213 427.44 6.87282C427.44 10.5235 430.397 13.4829 434.045 13.4829Z" fill="#6DC2C4"/>
<path d="M6.60485 47.4793C10.2527 47.4793 13.2099 44.5197 13.2099 40.869C13.2099 37.2183 10.2527 34.2589 6.60485 34.2589C2.957 34.2589 -0.000183105 37.2183 -0.000183105 40.869C-0.000183105 44.5197 2.957 47.4793 6.60485 47.4793Z" fill="#6DC2C4"/>
<path d="M49.5381 47.4793C53.1859 47.4793 56.1431 44.5197 56.1431 40.869C56.1431 37.2183 53.1859 34.2589 49.5381 34.2589C45.8902 34.2589 42.933 37.2183 42.933 40.869C42.933 44.5197 45.8902 47.4793 49.5381 47.4793Z" fill="#6DC2C4"/>
<path d="M92.4712 47.4793C96.1191 47.4793 99.0763 44.5197 99.0763 40.869C99.0763 37.2183 96.1191 34.2589 92.4712 34.2589C88.8234 34.2589 85.8662 37.2183 85.8662 40.869C85.8662 44.5197 88.8234 47.4793 92.4712 47.4793Z" fill="#6DC2C4"/>
<path d="M134.932 47.4793C138.58 47.4793 141.537 44.5197 141.537 40.869C141.537 37.2183 138.58 34.2589 134.932 34.2589C131.284 34.2589 128.327 37.2183 128.327 40.869C128.327 44.5197 131.284 47.4793 134.932 47.4793Z" fill="#6DC2C4"/>
<path d="M177.863 47.4793C181.511 47.4793 184.468 44.5197 184.468 40.869C184.468 37.2183 181.511 34.2589 177.863 34.2589C174.215 34.2589 171.258 37.2183 171.258 40.869C171.258 44.5197 174.215 47.4793 177.863 47.4793Z" fill="#6DC2C4"/>
<path d="M220.324 47.4793C223.972 47.4793 226.929 44.5197 226.929 40.869C226.929 37.2183 223.972 34.2589 220.324 34.2589C216.676 34.2589 213.719 37.2183 213.719 40.869C213.719 44.5197 216.676 47.4793 220.324 47.4793Z" fill="#6DC2C4"/>
<path d="M263.257 47.4793C266.905 47.4793 269.862 44.5197 269.862 40.869C269.862 37.2183 266.905 34.2589 263.257 34.2589C259.609 34.2589 256.652 37.2183 256.652 40.869C256.652 44.5197 259.609 47.4793 263.257 47.4793Z" fill="#6DC2C4"/>
<path d="M305.718 47.4793C309.366 47.4793 312.323 44.5197 312.323 40.869C312.323 37.2183 309.366 34.2589 305.718 34.2589C302.07 34.2589 299.113 37.2183 299.113 40.869C299.113 44.5197 302.07 47.4793 305.718 47.4793Z" fill="#6DC2C4"/>
<path d="M348.651 47.4793C352.299 47.4793 355.256 44.5197 355.256 40.869C355.256 37.2183 352.299 34.2589 348.651 34.2589C345.003 34.2589 342.046 37.2183 342.046 40.869C342.046 44.5197 345.003 47.4793 348.651 47.4793Z" fill="#6DC2C4"/>
<path d="M391.584 47.4793C395.232 47.4793 398.189 44.5197 398.189 40.869C398.189 37.2183 395.232 34.2589 391.584 34.2589C387.936 34.2589 384.979 37.2183 384.979 40.869C384.979 44.5197 387.936 47.4793 391.584 47.4793Z" fill="#6DC2C4"/>
<path d="M434.045 47.4793C437.693 47.4793 440.65 44.5197 440.65 40.869C440.65 37.2183 437.693 34.2589 434.045 34.2589C430.397 34.2589 427.44 37.2183 427.44 40.869C427.44 44.5197 430.397 47.4793 434.045 47.4793Z" fill="#6DC2C4"/>
<path d="M6.60485 81.4746C10.2527 81.4746 13.2099 78.5152 13.2099 74.8645C13.2099 71.2138 10.2527 68.2544 6.60485 68.2544C2.957 68.2544 -0.000183105 71.2138 -0.000183105 74.8645C-0.000183105 78.5152 2.957 81.4746 6.60485 81.4746Z" fill="#6DC2C4"/>
<path d="M49.5381 81.4746C53.1859 81.4746 56.1431 78.5152 56.1431 74.8645C56.1431 71.2138 53.1859 68.2544 49.5381 68.2544C45.8902 68.2544 42.933 71.2138 42.933 74.8645C42.933 78.5152 45.8902 81.4746 49.5381 81.4746Z" fill="#6DC2C4"/>
<path d="M92.4712 81.4746C96.1191 81.4746 99.0763 78.5152 99.0763 74.8645C99.0763 71.2138 96.1191 68.2544 92.4712 68.2544C88.8234 68.2544 85.8662 71.2138 85.8662 74.8645C85.8662 78.5152 88.8234 81.4746 92.4712 81.4746Z" fill="#6DC2C4"/>
<path d="M134.932 81.4746C138.58 81.4746 141.537 78.5152 141.537 74.8645C141.537 71.2138 138.58 68.2544 134.932 68.2544C131.284 68.2544 128.327 71.2138 128.327 74.8645C128.327 78.5152 131.284 81.4746 134.932 81.4746Z" fill="#6DC2C4"/>
<path d="M177.863 81.4746C181.511 81.4746 184.468 78.5152 184.468 74.8645C184.468 71.2138 181.511 68.2544 177.863 68.2544C174.215 68.2544 171.258 71.2138 171.258 74.8645C171.258 78.5152 174.215 81.4746 177.863 81.4746Z" fill="#6DC2C4"/>
<path d="M220.324 81.4746C223.972 81.4746 226.929 78.5152 226.929 74.8645C226.929 71.2138 223.972 68.2544 220.324 68.2544C216.676 68.2544 213.719 71.2138 213.719 74.8645C213.719 78.5152 216.676 81.4746 220.324 81.4746Z" fill="#6DC2C4"/>
<path d="M263.257 81.4746C266.905 81.4746 269.862 78.5152 269.862 74.8645C269.862 71.2138 266.905 68.2544 263.257 68.2544C259.609 68.2544 256.652 71.2138 256.652 74.8645C256.652 78.5152 259.609 81.4746 263.257 81.4746Z" fill="#6DC2C4"/>
<path d="M305.718 81.4746C309.366 81.4746 312.323 78.5152 312.323 74.8645C312.323 71.2138 309.366 68.2544 305.718 68.2544C302.07 68.2544 299.113 71.2138 299.113 74.8645C299.113 78.5152 302.07 81.4746 305.718 81.4746Z" fill="#6DC2C4"/>
<path d="M348.651 81.4746C352.299 81.4746 355.256 78.5152 355.256 74.8645C355.256 71.2138 352.299 68.2544 348.651 68.2544C345.003 68.2544 342.046 71.2138 342.046 74.8645C342.046 78.5152 345.003 81.4746 348.651 81.4746Z" fill="#6DC2C4"/>
<path d="M391.584 81.4746C395.232 81.4746 398.189 78.5152 398.189 74.8645C398.189 71.2138 395.232 68.2544 391.584 68.2544C387.936 68.2544 384.979 71.2138 384.979 74.8645C384.979 78.5152 387.936 81.4746 391.584 81.4746Z" fill="#6DC2C4"/>
<path d="M434.045 81.4746C437.693 81.4746 440.65 78.5152 440.65 74.8645C440.65 71.2138 437.693 68.2544 434.045 68.2544C430.397 68.2544 427.44 71.2138 427.44 74.8645C427.44 78.5152 430.397 81.4746 434.045 81.4746Z" fill="#6DC2C4"/>
<path d="M6.60485 115.467C10.2527 115.467 13.2099 112.507 13.2099 108.857C13.2099 105.206 10.2527 102.246 6.60485 102.246C2.957 102.246 -0.000183105 105.206 -0.000183105 108.857C-0.000183105 112.507 2.957 115.467 6.60485 115.467Z" fill="#6DC2C4"/>
<path d="M49.5381 115.467C53.1859 115.467 56.1431 112.507 56.1431 108.857C56.1431 105.206 53.1859 102.246 49.5381 102.246C45.8902 102.246 42.933 105.206 42.933 108.857C42.933 112.507 45.8902 115.467 49.5381 115.467Z" fill="#6DC2C4"/>
<path d="M92.4712 115.467C96.1191 115.467 99.0763 112.507 99.0763 108.857C99.0763 105.206 96.1191 102.246 92.4712 102.246C88.8234 102.246 85.8662 105.206 85.8662 108.857C85.8662 112.507 88.8234 115.467 92.4712 115.467Z" fill="#6DC2C4"/>
<path d="M134.932 115.467C138.58 115.467 141.537 112.507 141.537 108.857C141.537 105.206 138.58 102.246 134.932 102.246C131.284 102.246 128.327 105.206 128.327 108.857C128.327 112.507 131.284 115.467 134.932 115.467Z" fill="#6DC2C4"/>
<path d="M177.863 115.467C181.511 115.467 184.468 112.507 184.468 108.857C184.468 105.206 181.511 102.246 177.863 102.246C174.215 102.246 171.258 105.206 171.258 108.857C171.258 112.507 174.215 115.467 177.863 115.467Z" fill="#6DC2C4"/>
<path d="M220.324 115.467C223.972 115.467 226.929 112.507 226.929 108.857C226.929 105.206 223.972 102.246 220.324 102.246C216.676 102.246 213.719 105.206 213.719 108.857C213.719 112.507 216.676 115.467 220.324 115.467Z" fill="#6DC2C4"/>
<path d="M263.257 115.467C266.905 115.467 269.862 112.507 269.862 108.857C269.862 105.206 266.905 102.246 263.257 102.246C259.609 102.246 256.652 105.206 256.652 108.857C256.652 112.507 259.609 115.467 263.257 115.467Z" fill="#6DC2C4"/>
<path d="M305.718 115.467C309.366 115.467 312.323 112.507 312.323 108.857C312.323 105.206 309.366 102.246 305.718 102.246C302.07 102.246 299.113 105.206 299.113 108.857C299.113 112.507 302.07 115.467 305.718 115.467Z" fill="#6DC2C4"/>
<path d="M348.651 115.467C352.299 115.467 355.256 112.507 355.256 108.857C355.256 105.206 352.299 102.246 348.651 102.246C345.003 102.246 342.046 105.206 342.046 108.857C342.046 112.507 345.003 115.467 348.651 115.467Z" fill="#6DC2C4"/>
<path d="M391.584 115.467C395.232 115.467 398.189 112.507 398.189 108.857C398.189 105.206 395.232 102.246 391.584 102.246C387.936 102.246 384.979 105.206 384.979 108.857C384.979 112.507 387.936 115.467 391.584 115.467Z" fill="#6DC2C4"/>
<path d="M434.045 115.467C437.693 115.467 440.65 112.507 440.65 108.857C440.65 105.206 437.693 102.246 434.045 102.246C430.397 102.246 427.44 105.206 427.44 108.857C427.44 112.507 430.397 115.467 434.045 115.467Z" fill="#6DC2C4"/>
<path d="M6.60485 148.992C10.2527 148.992 13.2099 146.033 13.2099 142.382C13.2099 138.731 10.2527 135.772 6.60485 135.772C2.957 135.772 -0.000183105 138.731 -0.000183105 142.382C-0.000183105 146.033 2.957 148.992 6.60485 148.992Z" fill="#6DC2C4"/>
<path d="M49.5381 148.992C53.1859 148.992 56.1431 146.033 56.1431 142.382C56.1431 138.731 53.1859 135.772 49.5381 135.772C45.8902 135.772 42.933 138.731 42.933 142.382C42.933 146.033 45.8902 148.992 49.5381 148.992Z" fill="#6DC2C4"/>
<path d="M92.4712 148.992C96.1191 148.992 99.0763 146.033 99.0763 142.382C99.0763 138.731 96.1191 135.772 92.4712 135.772C88.8234 135.772 85.8662 138.731 85.8662 142.382C85.8662 146.033 88.8234 148.992 92.4712 148.992Z" fill="#6DC2C4"/>
<path d="M134.932 148.992C138.58 148.992 141.537 146.033 141.537 142.382C141.537 138.731 138.58 135.772 134.932 135.772C131.284 135.772 128.327 138.731 128.327 142.382C128.327 146.033 131.284 148.992 134.932 148.992Z" fill="#6DC2C4"/>
<path d="M177.863 148.992C181.511 148.992 184.468 146.033 184.468 142.382C184.468 138.731 181.511 135.772 177.863 135.772C174.215 135.772 171.258 138.731 171.258 142.382C171.258 146.033 174.215 148.992 177.863 148.992Z" fill="#6DC2C4"/>
<path d="M220.324 148.992C223.972 148.992 226.929 146.033 226.929 142.382C226.929 138.731 223.972 135.772 220.324 135.772C216.676 135.772 213.719 138.731 213.719 142.382C213.719 146.033 216.676 148.992 220.324 148.992Z" fill="#6DC2C4"/>
<path d="M263.257 148.992C266.905 148.992 269.862 146.033 269.862 142.382C269.862 138.731 266.905 135.772 263.257 135.772C259.609 135.772 256.652 138.731 256.652 142.382C256.652 146.033 259.609 148.992 263.257 148.992Z" fill="#6DC2C4"/>
<path d="M305.718 148.992C309.366 148.992 312.323 146.033 312.323 142.382C312.323 138.731 309.366 135.772 305.718 135.772C302.07 135.772 299.113 138.731 299.113 142.382C299.113 146.033 302.07 148.992 305.718 148.992Z" fill="#6DC2C4"/>
<path d="M348.651 148.992C352.299 148.992 355.256 146.033 355.256 142.382C355.256 138.731 352.299 135.772 348.651 135.772C345.003 135.772 342.046 138.731 342.046 142.382C342.046 146.033 345.003 148.992 348.651 148.992Z" fill="#6DC2C4"/>
<path d="M391.584 148.992C395.232 148.992 398.189 146.033 398.189 142.382C398.189 138.731 395.232 135.772 391.584 135.772C387.936 135.772 384.979 138.731 384.979 142.382C384.979 146.033 387.936 148.992 391.584 148.992Z" fill="#6DC2C4"/>
<path d="M434.045 148.992C437.693 148.992 440.65 146.033 440.65 142.382C440.65 138.731 437.693 135.772 434.045 135.772C430.397 135.772 427.44 138.731 427.44 142.382C427.44 146.033 430.397 148.992 434.045 148.992Z" fill="#6DC2C4"/>
<path d="M6.60485 182.988C10.2527 182.988 13.2099 180.029 13.2099 176.378C13.2099 172.727 10.2527 169.768 6.60485 169.768C2.957 169.768 -0.000183105 172.727 -0.000183105 176.378C-0.000183105 180.029 2.957 182.988 6.60485 182.988Z" fill="#6DC2C4"/>
<path d="M49.5381 182.988C53.1859 182.988 56.1431 180.029 56.1431 176.378C56.1431 172.727 53.1859 169.768 49.5381 169.768C45.8902 169.768 42.933 172.727 42.933 176.378C42.933 180.029 45.8902 182.988 49.5381 182.988Z" fill="#6DC2C4"/>
<path d="M92.4712 182.988C96.1191 182.988 99.0763 180.029 99.0763 176.378C99.0763 172.727 96.1191 169.768 92.4712 169.768C88.8234 169.768 85.8662 172.727 85.8662 176.378C85.8662 180.029 88.8234 182.988 92.4712 182.988Z" fill="#6DC2C4"/>
<path d="M134.932 182.988C138.58 182.988 141.537 180.029 141.537 176.378C141.537 172.727 138.58 169.768 134.932 169.768C131.284 169.768 128.327 172.727 128.327 176.378C128.327 180.029 131.284 182.988 134.932 182.988Z" fill="#6DC2C4"/>
<path d="M177.863 182.988C181.511 182.988 184.468 180.029 184.468 176.378C184.468 172.727 181.511 169.768 177.863 169.768C174.215 169.768 171.258 172.727 171.258 176.378C171.258 180.029 174.215 182.988 177.863 182.988Z" fill="#6DC2C4"/>
<path d="M220.324 182.988C223.972 182.988 226.929 180.029 226.929 176.378C226.929 172.727 223.972 169.768 220.324 169.768C216.676 169.768 213.719 172.727 213.719 176.378C213.719 180.029 216.676 182.988 220.324 182.988Z" fill="#6DC2C4"/>
<path d="M263.257 182.988C266.905 182.988 269.862 180.029 269.862 176.378C269.862 172.727 266.905 169.768 263.257 169.768C259.609 169.768 256.652 172.727 256.652 176.378C256.652 180.029 259.609 182.988 263.257 182.988Z" fill="#6DC2C4"/>
<path d="M305.718 182.988C309.366 182.988 312.323 180.029 312.323 176.378C312.323 172.727 309.366 169.768 305.718 169.768C302.07 169.768 299.113 172.727 299.113 176.378C299.113 180.029 302.07 182.988 305.718 182.988Z" fill="#6DC2C4"/>
<path d="M348.651 182.988C352.299 182.988 355.256 180.029 355.256 176.378C355.256 172.727 352.299 169.768 348.651 169.768C345.003 169.768 342.046 172.727 342.046 176.378C342.046 180.029 345.003 182.988 348.651 182.988Z" fill="#6DC2C4"/>
<path d="M391.584 182.988C395.232 182.988 398.189 180.029 398.189 176.378C398.189 172.727 395.232 169.768 391.584 169.768C387.936 169.768 384.979 172.727 384.979 176.378C384.979 180.029 387.936 182.988 391.584 182.988Z" fill="#6DC2C4"/>
<path d="M434.045 182.988C437.693 182.988 440.65 180.029 440.65 176.378C440.65 172.727 437.693 169.768 434.045 169.768C430.397 169.768 427.44 172.727 427.44 176.378C427.44 180.029 430.397 182.988 434.045 182.988Z" fill="#6DC2C4"/>
<path d="M6.60485 216.979C10.2527 216.979 13.2099 214.02 13.2099 210.369C13.2099 206.719 10.2527 203.759 6.60485 203.759C2.957 203.759 -0.000183105 206.719 -0.000183105 210.369C-0.000183105 214.02 2.957 216.979 6.60485 216.979Z" fill="#6DC2C4"/>
<path d="M49.5381 216.979C53.1859 216.979 56.1431 214.02 56.1431 210.369C56.1431 206.719 53.1859 203.759 49.5381 203.759C45.8902 203.759 42.933 206.719 42.933 210.369C42.933 214.02 45.8902 216.979 49.5381 216.979Z" fill="#6DC2C4"/>
<path d="M92.4712 216.979C96.1191 216.979 99.0763 214.02 99.0763 210.369C99.0763 206.719 96.1191 203.759 92.4712 203.759C88.8234 203.759 85.8662 206.719 85.8662 210.369C85.8662 214.02 88.8234 216.979 92.4712 216.979Z" fill="#6DC2C4"/>
<path d="M134.932 216.979C138.58 216.979 141.537 214.02 141.537 210.369C141.537 206.719 138.58 203.759 134.932 203.759C131.284 203.759 128.327 206.719 128.327 210.369C128.327 214.02 131.284 216.979 134.932 216.979Z" fill="#6DC2C4"/>
<path d="M177.863 216.979C181.511 216.979 184.468 214.02 184.468 210.369C184.468 206.719 181.511 203.759 177.863 203.759C174.215 203.759 171.258 206.719 171.258 210.369C171.258 214.02 174.215 216.979 177.863 216.979Z" fill="#6DC2C4"/>
<path d="M220.324 216.979C223.972 216.979 226.929 214.02 226.929 210.369C226.929 206.719 223.972 203.759 220.324 203.759C216.676 203.759 213.719 206.719 213.719 210.369C213.719 214.02 216.676 216.979 220.324 216.979Z" fill="#6DC2C4"/>
<path d="M263.257 216.979C266.905 216.979 269.862 214.02 269.862 210.369C269.862 206.719 266.905 203.759 263.257 203.759C259.609 203.759 256.652 206.719 256.652 210.369C256.652 214.02 259.609 216.979 263.257 216.979Z" fill="#6DC2C4"/>
<path d="M305.718 216.979C309.366 216.979 312.323 214.02 312.323 210.369C312.323 206.719 309.366 203.759 305.718 203.759C302.07 203.759 299.113 206.719 299.113 210.369C299.113 214.02 302.07 216.979 305.718 216.979Z" fill="#6DC2C4"/>
<path d="M348.651 216.979C352.299 216.979 355.256 214.02 355.256 210.369C355.256 206.719 352.299 203.759 348.651 203.759C345.003 203.759 342.046 206.719 342.046 210.369C342.046 214.02 345.003 216.979 348.651 216.979Z" fill="#6DC2C4"/>
<path d="M391.584 216.979C395.232 216.979 398.189 214.02 398.189 210.369C398.189 206.719 395.232 203.759 391.584 203.759C387.936 203.759 384.979 206.719 384.979 210.369C384.979 214.02 387.936 216.979 391.584 216.979Z" fill="#6DC2C4"/>
<path d="M434.045 216.979C437.693 216.979 440.65 214.02 440.65 210.369C440.65 206.719 437.693 203.759 434.045 203.759C430.397 203.759 427.44 206.719 427.44 210.369C427.44 214.02 430.397 216.979 434.045 216.979Z" fill="#6DC2C4"/>
<path d="M6.60504 251.2C10.2529 251.2 13.2101 248.24 13.2101 244.59C13.2101 240.939 10.2529 237.979 6.60504 237.979C2.95718 237.979 0 240.939 0 244.59C0 248.24 2.95718 251.2 6.60504 251.2Z" fill="#6DC2C4"/>
<path d="M49.5383 251.2C53.1861 251.2 56.1433 248.24 56.1433 244.59C56.1433 240.939 53.1861 237.979 49.5383 237.979C45.8904 237.979 42.9332 240.939 42.9332 244.59C42.9332 248.24 45.8904 251.2 49.5383 251.2Z" fill="#6DC2C4"/>
<path d="M92.4714 251.2C96.1193 251.2 99.0765 248.24 99.0765 244.59C99.0765 240.939 96.1193 237.979 92.4714 237.979C88.8236 237.979 85.8664 240.939 85.8664 244.59C85.8664 248.24 88.8236 251.2 92.4714 251.2Z" fill="#6DC2C4"/>
<path d="M134.932 251.2C138.58 251.2 141.537 248.24 141.537 244.59C141.537 240.939 138.58 237.979 134.932 237.979C131.285 237.979 128.327 240.939 128.327 244.59C128.327 248.24 131.285 251.2 134.932 251.2Z" fill="#6DC2C4"/>
<path d="M177.863 251.2C181.511 251.2 184.468 248.24 184.468 244.59C184.468 240.939 181.511 237.979 177.863 237.979C174.215 237.979 171.258 240.939 171.258 244.59C171.258 248.24 174.215 251.2 177.863 251.2Z" fill="#6DC2C4"/>
<path d="M220.324 251.2C223.972 251.2 226.929 248.24 226.929 244.59C226.929 240.939 223.972 237.979 220.324 237.979C216.676 237.979 213.719 240.939 213.719 244.59C213.719 248.24 216.676 251.2 220.324 251.2Z" fill="#6DC2C4"/>
<path d="M263.257 251.2C266.905 251.2 269.862 248.24 269.862 244.59C269.862 240.939 266.905 237.979 263.257 237.979C259.609 237.979 256.652 240.939 256.652 244.59C256.652 248.24 259.609 251.2 263.257 251.2Z" fill="#6DC2C4"/>
<path d="M305.718 251.2C309.366 251.2 312.323 248.24 312.323 244.59C312.323 240.939 309.366 237.979 305.718 237.979C302.07 237.979 299.113 240.939 299.113 244.59C299.113 248.24 302.07 251.2 305.718 251.2Z" fill="#6DC2C4"/>
<path d="M348.651 251.2C352.299 251.2 355.256 248.24 355.256 244.59C355.256 240.939 352.299 237.979 348.651 237.979C345.003 237.979 342.046 240.939 342.046 244.59C342.046 248.24 345.003 251.2 348.651 251.2Z" fill="#6DC2C4"/>
<path d="M391.584 251.2C395.232 251.2 398.189 248.24 398.189 244.59C398.189 240.939 395.232 237.979 391.584 237.979C387.936 237.979 384.979 240.939 384.979 244.59C384.979 248.24 387.936 251.2 391.584 251.2Z" fill="#6DC2C4"/>
<path d="M434.045 251.2C437.693 251.2 440.65 248.24 440.65 244.59C440.65 240.939 437.693 237.979 434.045 237.979C430.397 237.979 427.44 240.939 427.44 244.59C427.44 248.24 430.397 251.2 434.045 251.2Z" fill="#6DC2C4"/>
<path d="M6.60504 284.725C10.2529 284.725 13.2101 281.766 13.2101 278.115C13.2101 274.464 10.2529 271.505 6.60504 271.505C2.95718 271.505 0 274.464 0 278.115C0 281.766 2.95718 284.725 6.60504 284.725Z" fill="#6DC2C4"/>
<path d="M49.5383 284.725C53.1861 284.725 56.1433 281.766 56.1433 278.115C56.1433 274.464 53.1861 271.505 49.5383 271.505C45.8904 271.505 42.9332 274.464 42.9332 278.115C42.9332 281.766 45.8904 284.725 49.5383 284.725Z" fill="#6DC2C4"/>
<path d="M92.4714 284.725C96.1193 284.725 99.0765 281.766 99.0765 278.115C99.0765 274.464 96.1193 271.505 92.4714 271.505C88.8236 271.505 85.8664 274.464 85.8664 278.115C85.8664 281.766 88.8236 284.725 92.4714 284.725Z" fill="#6DC2C4"/>
<path d="M134.932 284.725C138.58 284.725 141.537 281.766 141.537 278.115C141.537 274.464 138.58 271.505 134.932 271.505C131.285 271.505 128.327 274.464 128.327 278.115C128.327 281.766 131.285 284.725 134.932 284.725Z" fill="#6DC2C4"/>
<path d="M177.863 284.725C181.511 284.725 184.468 281.766 184.468 278.115C184.468 274.464 181.511 271.505 177.863 271.505C174.215 271.505 171.258 274.464 171.258 278.115C171.258 281.766 174.215 284.725 177.863 284.725Z" fill="#6DC2C4"/>
<path d="M220.324 284.725C223.972 284.725 226.929 281.766 226.929 278.115C226.929 274.464 223.972 271.505 220.324 271.505C216.676 271.505 213.719 274.464 213.719 278.115C213.719 281.766 216.676 284.725 220.324 284.725Z" fill="#6DC2C4"/>
<path d="M263.257 284.725C266.905 284.725 269.862 281.766 269.862 278.115C269.862 274.464 266.905 271.505 263.257 271.505C259.609 271.505 256.652 274.464 256.652 278.115C256.652 281.766 259.609 284.725 263.257 284.725Z" fill="#6DC2C4"/>
<path d="M305.718 284.725C309.366 284.725 312.323 281.766 312.323 278.115C312.323 274.464 309.366 271.505 305.718 271.505C302.07 271.505 299.113 274.464 299.113 278.115C299.113 281.766 302.07 284.725 305.718 284.725Z" fill="#6DC2C4"/>
<path d="M348.651 284.725C352.299 284.725 355.256 281.766 355.256 278.115C355.256 274.464 352.299 271.505 348.651 271.505C345.003 271.505 342.046 274.464 342.046 278.115C342.046 281.766 345.003 284.725 348.651 284.725Z" fill="#6DC2C4"/>
<path d="M391.584 284.725C395.232 284.725 398.189 281.766 398.189 278.115C398.189 274.464 395.232 271.505 391.584 271.505C387.936 271.505 384.979 274.464 384.979 278.115C384.979 281.766 387.936 284.725 391.584 284.725Z" fill="#6DC2C4"/>
<path d="M434.045 284.725C437.693 284.725 440.65 281.766 440.65 278.115C440.65 274.464 437.693 271.505 434.045 271.505C430.397 271.505 427.44 274.464 427.44 278.115C427.44 281.766 430.397 284.725 434.045 284.725Z" fill="#6DC2C4"/>
<path d="M6.60504 318.717C10.2529 318.717 13.2101 315.758 13.2101 312.107C13.2101 308.456 10.2529 305.497 6.60504 305.497C2.95718 305.497 0 308.456 0 312.107C0 315.758 2.95718 318.717 6.60504 318.717Z" fill="#6DC2C4"/>
<path d="M49.5383 318.717C53.1861 318.717 56.1433 315.758 56.1433 312.107C56.1433 308.456 53.1861 305.497 49.5383 305.497C45.8904 305.497 42.9332 308.456 42.9332 312.107C42.9332 315.758 45.8904 318.717 49.5383 318.717Z" fill="#6DC2C4"/>
<path d="M92.4714 318.717C96.1193 318.717 99.0765 315.758 99.0765 312.107C99.0765 308.456 96.1193 305.497 92.4714 305.497C88.8236 305.497 85.8664 308.456 85.8664 312.107C85.8664 315.758 88.8236 318.717 92.4714 318.717Z" fill="#6DC2C4"/>
<path d="M134.932 318.717C138.58 318.717 141.537 315.758 141.537 312.107C141.537 308.456 138.58 305.497 134.932 305.497C131.285 305.497 128.327 308.456 128.327 312.107C128.327 315.758 131.285 318.717 134.932 318.717Z" fill="#6DC2C4"/>
<path d="M177.863 318.717C181.511 318.717 184.468 315.758 184.468 312.107C184.468 308.456 181.511 305.497 177.863 305.497C174.215 305.497 171.258 308.456 171.258 312.107C171.258 315.758 174.215 318.717 177.863 318.717Z" fill="#6DC2C4"/>
<path d="M220.324 318.717C223.972 318.717 226.929 315.758 226.929 312.107C226.929 308.456 223.972 305.497 220.324 305.497C216.676 305.497 213.719 308.456 213.719 312.107C213.719 315.758 216.676 318.717 220.324 318.717Z" fill="#6DC2C4"/>
<path d="M263.257 318.717C266.905 318.717 269.862 315.758 269.862 312.107C269.862 308.456 266.905 305.497 263.257 305.497C259.609 305.497 256.652 308.456 256.652 312.107C256.652 315.758 259.609 318.717 263.257 318.717Z" fill="#6DC2C4"/>
<path d="M305.718 318.717C309.366 318.717 312.323 315.758 312.323 312.107C312.323 308.456 309.366 305.497 305.718 305.497C302.07 305.497 299.113 308.456 299.113 312.107C299.113 315.758 302.07 318.717 305.718 318.717Z" fill="#6DC2C4"/>
<path d="M348.651 318.717C352.299 318.717 355.256 315.758 355.256 312.107C355.256 308.456 352.299 305.497 348.651 305.497C345.003 305.497 342.046 308.456 342.046 312.107C342.046 315.758 345.003 318.717 348.651 318.717Z" fill="#6DC2C4"/>
<path d="M391.584 318.717C395.232 318.717 398.189 315.758 398.189 312.107C398.189 308.456 395.232 305.497 391.584 305.497C387.936 305.497 384.979 308.456 384.979 312.107C384.979 315.758 387.936 318.717 391.584 318.717Z" fill="#6DC2C4"/>
<path d="M434.045 318.717C437.693 318.717 440.65 315.758 440.65 312.107C440.65 308.456 437.693 305.497 434.045 305.497C430.397 305.497 427.44 308.456 427.44 312.107C427.44 315.758 430.397 318.717 434.045 318.717Z" fill="#6DC2C4"/>
<path d="M6.60504 352.712C10.2529 352.712 13.2101 349.753 13.2101 346.102C13.2101 342.452 10.2529 339.492 6.60504 339.492C2.95718 339.492 0 342.452 0 346.102C0 349.753 2.95718 352.712 6.60504 352.712Z" fill="#6DC2C4"/>
<path d="M49.5383 352.712C53.1861 352.712 56.1433 349.753 56.1433 346.102C56.1433 342.452 53.1861 339.492 49.5383 339.492C45.8904 339.492 42.9332 342.452 42.9332 346.102C42.9332 349.753 45.8904 352.712 49.5383 352.712Z" fill="#6DC2C4"/>
<path d="M92.4714 352.712C96.1193 352.712 99.0765 349.753 99.0765 346.102C99.0765 342.452 96.1193 339.492 92.4714 339.492C88.8236 339.492 85.8664 342.452 85.8664 346.102C85.8664 349.753 88.8236 352.712 92.4714 352.712Z" fill="#6DC2C4"/>
<path d="M134.932 352.712C138.58 352.712 141.537 349.753 141.537 346.102C141.537 342.452 138.58 339.492 134.932 339.492C131.285 339.492 128.327 342.452 128.327 346.102C128.327 349.753 131.285 352.712 134.932 352.712Z" fill="#6DC2C4"/>
<path d="M177.863 352.712C181.511 352.712 184.468 349.753 184.468 346.102C184.468 342.452 181.511 339.492 177.863 339.492C174.215 339.492 171.258 342.452 171.258 346.102C171.258 349.753 174.215 352.712 177.863 352.712Z" fill="#6DC2C4"/>
<path d="M220.324 352.712C223.972 352.712 226.929 349.753 226.929 346.102C226.929 342.452 223.972 339.492 220.324 339.492C216.676 339.492 213.719 342.452 213.719 346.102C213.719 349.753 216.676 352.712 220.324 352.712Z" fill="#6DC2C4"/>
<path d="M263.257 352.712C266.905 352.712 269.862 349.753 269.862 346.102C269.862 342.452 266.905 339.492 263.257 339.492C259.609 339.492 256.652 342.452 256.652 346.102C256.652 349.753 259.609 352.712 263.257 352.712Z" fill="#6DC2C4"/>
<path d="M305.718 352.712C309.366 352.712 312.323 349.753 312.323 346.102C312.323 342.452 309.366 339.492 305.718 339.492C302.07 339.492 299.113 342.452 299.113 346.102C299.113 349.753 302.07 352.712 305.718 352.712Z" fill="#6DC2C4"/>
<path d="M348.651 352.712C352.299 352.712 355.256 349.753 355.256 346.102C355.256 342.452 352.299 339.492 348.651 339.492C345.003 339.492 342.046 342.452 342.046 346.102C342.046 349.753 345.003 352.712 348.651 352.712Z" fill="#6DC2C4"/>
<path d="M391.584 352.712C395.232 352.712 398.189 349.753 398.189 346.102C398.189 342.452 395.232 339.492 391.584 339.492C387.936 339.492 384.979 342.452 384.979 346.102C384.979 349.753 387.936 352.712 391.584 352.712Z" fill="#6DC2C4"/>
<path d="M434.045 352.712C437.693 352.712 440.65 349.753 440.65 346.102C440.65 342.452 437.693 339.492 434.045 339.492C430.397 339.492 427.44 342.452 427.44 346.102C427.44 349.753 430.397 352.712 434.045 352.712Z" fill="#6DC2C4"/>
<path d="M6.60504 386.709C10.2529 386.709 13.2101 383.749 13.2101 380.099C13.2101 376.448 10.2529 373.488 6.60504 373.488C2.95718 373.488 0 376.448 0 380.099C0 383.749 2.95718 386.709 6.60504 386.709Z" fill="#6DC2C4"/>
<path d="M49.5383 386.709C53.1861 386.709 56.1433 383.749 56.1433 380.099C56.1433 376.448 53.1861 373.488 49.5383 373.488C45.8904 373.488 42.9332 376.448 42.9332 380.099C42.9332 383.749 45.8904 386.709 49.5383 386.709Z" fill="#6DC2C4"/>
<path d="M92.4714 386.709C96.1193 386.709 99.0765 383.749 99.0765 380.099C99.0765 376.448 96.1193 373.488 92.4714 373.488C88.8236 373.488 85.8664 376.448 85.8664 380.099C85.8664 383.749 88.8236 386.709 92.4714 386.709Z" fill="#6DC2C4"/>
<path d="M134.932 386.709C138.58 386.709 141.537 383.749 141.537 380.099C141.537 376.448 138.58 373.488 134.932 373.488C131.285 373.488 128.327 376.448 128.327 380.099C128.327 383.749 131.285 386.709 134.932 386.709Z" fill="#6DC2C4"/>
<path d="M177.863 386.709C181.511 386.709 184.468 383.749 184.468 380.099C184.468 376.448 181.511 373.488 177.863 373.488C174.215 373.488 171.258 376.448 171.258 380.099C171.258 383.749 174.215 386.709 177.863 386.709Z" fill="#6DC2C4"/>
<path d="M220.324 386.709C223.972 386.709 226.929 383.749 226.929 380.099C226.929 376.448 223.972 373.488 220.324 373.488C216.676 373.488 213.719 376.448 213.719 380.099C213.719 383.749 216.676 386.709 220.324 386.709Z" fill="#6DC2C4"/>
<path d="M263.257 386.709C266.905 386.709 269.862 383.749 269.862 380.099C269.862 376.448 266.905 373.488 263.257 373.488C259.609 373.488 256.652 376.448 256.652 380.099C256.652 383.749 259.609 386.709 263.257 386.709Z" fill="#6DC2C4"/>
<path d="M305.718 386.709C309.366 386.709 312.323 383.749 312.323 380.099C312.323 376.448 309.366 373.488 305.718 373.488C302.07 373.488 299.113 376.448 299.113 380.099C299.113 383.749 302.07 386.709 305.718 386.709Z" fill="#6DC2C4"/>
<path d="M348.651 386.709C352.299 386.709 355.256 383.749 355.256 380.099C355.256 376.448 352.299 373.488 348.651 373.488C345.003 373.488 342.046 376.448 342.046 380.099C342.046 383.749 345.003 386.709 348.651 386.709Z" fill="#6DC2C4"/>
<path d="M391.584 386.709C395.232 386.709 398.189 383.749 398.189 380.099C398.189 376.448 395.232 373.488 391.584 373.488C387.936 373.488 384.979 376.448 384.979 380.099C384.979 383.749 387.936 386.709 391.584 386.709Z" fill="#6DC2C4"/>
<path d="M434.045 386.709C437.693 386.709 440.65 383.749 440.65 380.099C440.65 376.448 437.693 373.488 434.045 373.488C430.397 373.488 427.44 376.448 427.44 380.099C427.44 383.749 430.397 386.709 434.045 386.709Z" fill="#6DC2C4"/>
<path d="M6.60504 420.23C10.2529 420.23 13.2101 417.271 13.2101 413.62C13.2101 409.969 10.2529 407.01 6.60504 407.01C2.95718 407.01 0 409.969 0 413.62C0 417.271 2.95718 420.23 6.60504 420.23Z" fill="#6DC2C4"/>
<path d="M49.5383 420.23C53.1861 420.23 56.1433 417.271 56.1433 413.62C56.1433 409.969 53.1861 407.01 49.5383 407.01C45.8904 407.01 42.9332 409.969 42.9332 413.62C42.9332 417.271 45.8904 420.23 49.5383 420.23Z" fill="#6DC2C4"/>
<path d="M92.4714 420.23C96.1193 420.23 99.0765 417.271 99.0765 413.62C99.0765 409.969 96.1193 407.01 92.4714 407.01C88.8236 407.01 85.8664 409.969 85.8664 413.62C85.8664 417.271 88.8236 420.23 92.4714 420.23Z" fill="#6DC2C4"/>
<path d="M134.932 420.23C138.58 420.23 141.537 417.271 141.537 413.62C141.537 409.969 138.58 407.01 134.932 407.01C131.285 407.01 128.327 409.969 128.327 413.62C128.327 417.271 131.285 420.23 134.932 420.23Z" fill="#6DC2C4"/>
<path d="M177.863 420.23C181.511 420.23 184.468 417.271 184.468 413.62C184.468 409.969 181.511 407.01 177.863 407.01C174.215 407.01 171.258 409.969 171.258 413.62C171.258 417.271 174.215 420.23 177.863 420.23Z" fill="#6DC2C4"/>
<path d="M220.324 420.23C223.972 420.23 226.929 417.271 226.929 413.62C226.929 409.969 223.972 407.01 220.324 407.01C216.676 407.01 213.719 409.969 213.719 413.62C213.719 417.271 216.676 420.23 220.324 420.23Z" fill="#6DC2C4"/>
<path d="M263.257 420.23C266.905 420.23 269.862 417.271 269.862 413.62C269.862 409.969 266.905 407.01 263.257 407.01C259.609 407.01 256.652 409.969 256.652 413.62C256.652 417.271 259.609 420.23 263.257 420.23Z" fill="#6DC2C4"/>
<path d="M305.718 420.23C309.366 420.23 312.323 417.271 312.323 413.62C312.323 409.969 309.366 407.01 305.718 407.01C302.07 407.01 299.113 409.969 299.113 413.62C299.113 417.271 302.07 420.23 305.718 420.23Z" fill="#6DC2C4"/>
<path d="M348.651 420.23C352.299 420.23 355.256 417.271 355.256 413.62C355.256 409.969 352.299 407.01 348.651 407.01C345.003 407.01 342.046 409.969 342.046 413.62C342.046 417.271 345.003 420.23 348.651 420.23Z" fill="#6DC2C4"/>
<path d="M391.584 420.23C395.232 420.23 398.189 417.271 398.189 413.62C398.189 409.969 395.232 407.01 391.584 407.01C387.936 407.01 384.979 409.969 384.979 413.62C384.979 417.271 387.936 420.23 391.584 420.23Z" fill="#6DC2C4"/>
<path d="M434.045 420.23C437.693 420.23 440.65 417.271 440.65 413.62C440.65 409.969 437.693 407.01 434.045 407.01C430.397 407.01 427.44 409.969 427.44 413.62C427.44 417.271 430.397 420.23 434.045 420.23Z" fill="#6DC2C4"/>
<path d="M6.60504 454.226C10.2529 454.226 13.2101 451.267 13.2101 447.616C13.2101 443.965 10.2529 441.006 6.60504 441.006C2.95718 441.006 0 443.965 0 447.616C0 451.267 2.95718 454.226 6.60504 454.226Z" fill="#6DC2C4"/>
<path d="M49.5383 454.226C53.1861 454.226 56.1433 451.267 56.1433 447.616C56.1433 443.965 53.1861 441.006 49.5383 441.006C45.8904 441.006 42.9332 443.965 42.9332 447.616C42.9332 451.267 45.8904 454.226 49.5383 454.226Z" fill="#6DC2C4"/>
<path d="M92.4714 454.226C96.1193 454.226 99.0765 451.267 99.0765 447.616C99.0765 443.965 96.1193 441.006 92.4714 441.006C88.8236 441.006 85.8664 443.965 85.8664 447.616C85.8664 451.267 88.8236 454.226 92.4714 454.226Z" fill="#6DC2C4"/>
<path d="M134.932 454.226C138.58 454.226 141.537 451.267 141.537 447.616C141.537 443.965 138.58 441.006 134.932 441.006C131.285 441.006 128.327 443.965 128.327 447.616C128.327 451.267 131.285 454.226 134.932 454.226Z" fill="#6DC2C4"/>
<path d="M177.863 454.226C181.511 454.226 184.468 451.267 184.468 447.616C184.468 443.965 181.511 441.006 177.863 441.006C174.215 441.006 171.258 443.965 171.258 447.616C171.258 451.267 174.215 454.226 177.863 454.226Z" fill="#6DC2C4"/>
<path d="M220.324 454.226C223.972 454.226 226.929 451.267 226.929 447.616C226.929 443.965 223.972 441.006 220.324 441.006C216.676 441.006 213.719 443.965 213.719 447.616C213.719 451.267 216.676 454.226 220.324 454.226Z" fill="#6DC2C4"/>
<path d="M263.257 454.226C266.905 454.226 269.862 451.267 269.862 447.616C269.862 443.965 266.905 441.006 263.257 441.006C259.609 441.006 256.652 443.965 256.652 447.616C256.652 451.267 259.609 454.226 263.257 454.226Z" fill="#6DC2C4"/>
<path d="M305.718 454.226C309.366 454.226 312.323 451.267 312.323 447.616C312.323 443.965 309.366 441.006 305.718 441.006C302.07 441.006 299.113 443.965 299.113 447.616C299.113 451.267 302.07 454.226 305.718 454.226Z" fill="#6DC2C4"/>
<path d="M348.651 454.226C352.299 454.226 355.256 451.267 355.256 447.616C355.256 443.965 352.299 441.006 348.651 441.006C345.003 441.006 342.046 443.965 342.046 447.616C342.046 451.267 345.003 454.226 348.651 454.226Z" fill="#6DC2C4"/>
<path d="M391.584 454.226C395.232 454.226 398.189 451.267 398.189 447.616C398.189 443.965 395.232 441.006 391.584 441.006C387.936 441.006 384.979 443.965 384.979 447.616C384.979 451.267 387.936 454.226 391.584 454.226Z" fill="#6DC2C4"/>
<path d="M434.045 454.226C437.693 454.226 440.65 451.267 440.65 447.616C440.65 443.965 437.693 441.006 434.045 441.006C430.397 441.006 427.44 443.965 427.44 447.616C427.44 451.267 430.397 454.226 434.045 454.226Z" fill="#6DC2C4"/>
</svg>
