<svg width="418" height="375" viewBox="0 0 418 375" fill="none" xmlns="http://www.w3.org/2000/svg">
<path d="M314.06 192.18C320.42 192.18 320.42 198.18 326.78 198.18C333.14 198.18 333.14 192.18 339.5 192.18C345.86 192.18 345.86 198.18 352.22 198.18C358.58 198.18 358.58 192.18 364.94 192.18C371.3 192.18 371.3 198.18 377.66 198.18C384.02 198.18 384.02 192.18 390.38 192.18C396.74 192.18 396.74 198.18 403.11 198.18C409.48 198.18 409.47 192.18 415.83 192.18" stroke="white" stroke-width="3" stroke-miterlimit="10" stroke-linecap="round"/>
<path d="M314.06 204.25C320.42 204.25 320.42 210.25 326.78 210.25C333.14 210.25 333.14 204.25 339.5 204.25C345.86 204.25 345.86 210.25 352.22 210.25C358.58 210.25 358.58 204.25 364.94 204.25C371.3 204.25 371.3 210.25 377.66 210.25C384.02 210.25 384.02 204.25 390.38 204.25C396.74 204.25 396.74 210.25 403.11 210.25C409.48 210.25 409.47 204.25 415.83 204.25" stroke="white" stroke-width="3" stroke-miterlimit="10" stroke-linecap="round"/>
<path opacity="0.99" d="M116.36 259.24H123.92V266.6H129.56V259.24H137.12V253.4H129.56V246.02H123.92V253.4H116.36V259.24Z" fill="#E9DF67"/>
<g opacity="0.99">
<path opacity="0.99" d="M324.85 236.86L322.51 239.21L325.65 242.35L322.7 245.29L325.05 247.63L327.99 244.69L331.13 247.83L333.48 245.49L330.33 242.35L333.29 239.39L330.95 237.05L327.99 240L324.85 236.86Z" fill="#744593"/>
</g>
<g opacity="0.99">
<path opacity="0.99" d="M391.16 278.02L388.13 276.7L386.35 280.77L382.53 279.11L381.21 282.15L385.03 283.81L383.26 287.88L386.3 289.2L388.07 285.13L391.9 286.8L393.22 283.76L389.39 282.1L391.16 278.02Z" fill="#6DC2C4"/>
</g>
<g opacity="0.99">
<path opacity="0.99" d="M149.35 106L147 108.34L150.15 111.48L147.2 114.43L149.54 116.77L152.49 113.82L155.63 116.96L157.97 114.62L154.83 111.48L157.78 108.52L155.44 106.18L152.49 109.14L149.35 106Z" fill="#744593"/>
</g>
<g opacity="0.99">
<path opacity="0.99" d="M315.54 126.11L314.33 127.32L315.95 128.94L314.43 130.47L315.64 131.68L317.16 130.15L318.79 131.78L320 130.57L318.37 128.94L319.9 127.41L318.69 126.2L317.16 127.73L315.54 126.11Z" fill="#744593"/>
</g>
<path d="M187.92 335.6C183.381 338.769 177.769 340.008 172.317 339.045C166.865 338.081 162.018 334.993 158.84 330.46C157.266 328.211 156.15 325.674 155.557 322.994C154.963 320.314 154.903 317.543 155.38 314.84C155.858 312.137 156.863 309.554 158.338 307.239C159.814 304.925 161.731 302.923 163.98 301.35" fill="#6DC2C4"/>
<path d="M123.9 191.8C118.357 191.8 113.041 189.598 109.121 185.679C105.202 181.759 103 176.443 103 170.9C103 165.357 105.202 160.041 109.121 156.121C113.041 152.202 118.357 150 123.9 150" stroke="#744593" stroke-width="2" stroke-miterlimit="10"/>
<path d="M315.75 260.93C316.534 260.93 317.17 260.294 317.17 259.51C317.17 258.726 316.534 258.09 315.75 258.09C314.966 258.09 314.33 258.726 314.33 259.51C314.33 260.294 314.966 260.93 315.75 260.93Z" fill="#6DC2C4"/>
<path d="M73.31 202.62C74.5858 202.62 75.62 201.586 75.62 200.31C75.62 199.034 74.5858 198 73.31 198C72.0342 198 71 199.034 71 200.31C71 201.586 72.0342 202.62 73.31 202.62Z" fill="#E9DF67"/>
<path d="M87.38 155.48C88.1642 155.48 88.8 154.844 88.8 154.06C88.8 153.275 88.1642 152.64 87.38 152.64C86.5957 152.64 85.96 153.275 85.96 154.06C85.96 154.844 86.5957 155.48 87.38 155.48Z" fill="#6DC2C4"/>
<path d="M93.9099 352.35H72.8999V331.35L93.9099 352.35Z" fill="#E9DF67"/>
<path d="M263.303 234.551L257.293 228.541L251.283 234.551L257.293 240.562L263.303 234.551Z" stroke="#E9DF67" stroke-width="2" stroke-miterlimit="10"/>
<path d="M322.478 93.0074C318.738 88.9168 316.775 83.5085 317.021 77.9713C317.266 72.434 319.7 67.2208 323.788 63.4774C325.813 61.6249 328.184 60.1895 330.764 59.2533C333.345 58.3171 336.084 57.8983 338.826 58.0209C341.568 58.1434 344.26 58.805 346.746 59.9677C349.233 61.1304 351.466 62.7716 353.318 64.7974" stroke="#E9DF67" stroke-width="5" stroke-miterlimit="10"/>
<path d="M260.84 374.09C260.84 368.547 263.042 363.231 266.961 359.312C270.881 355.392 276.197 353.19 281.74 353.19C287.283 353.19 292.599 355.392 296.518 359.312C300.438 363.231 302.64 368.547 302.64 374.09" stroke="white" stroke-width="5" stroke-miterlimit="10"/>
<path d="M224.24 116.5C228.156 116.5 231.33 113.326 231.33 109.41C231.33 105.495 228.156 102.32 224.24 102.32C220.324 102.32 217.15 105.495 217.15 109.41C217.15 113.326 220.324 116.5 224.24 116.5Z" fill="white"/>
<path d="M170.03 171.93L190.44 177.4L195.91 197.81L175.5 192.34L170.03 171.93Z" fill="#E9DF67"/>
<path d="M175.5 192.34L160.55 207.28L180.96 212.75L195.91 197.81L175.5 192.34Z" fill="#6DC2C4"/>
<path d="M170.03 171.93L155.09 186.87L160.55 207.28L175.5 192.34L170.03 171.93Z" fill="white"/>
<path d="M261.445 43.2019L276.359 47.4972L280.092 62.5585L265.179 58.2632L261.445 43.2019Z" fill="#E9DF67"/>
<path d="M265.179 58.263L254.009 69.0292L268.922 73.3245L280.092 62.5584L265.179 58.263Z" fill="#6DC2C4"/>
<path d="M261.446 43.202L250.276 53.9782L254.009 69.0295L265.179 58.2633L261.446 43.202Z" fill="white"/>
<path d="M346.48 124.32L363.63 114.42L380.79 124.32L363.63 134.23L346.48 124.32Z" fill="#744593"/>
<path d="M363.63 134.23V154.04L380.79 144.13V124.32L363.63 134.23Z" fill="#E9DF67"/>
<path d="M346.48 124.32V144.13L363.63 154.04V134.23L346.48 124.32Z" fill="#3E3E63"/>
<path d="M248.57 307.21L253.69 288.08L272.83 282.95L267.7 302.09L248.57 307.21Z" fill="#3E3E63"/>
<path d="M267.7 302.09L281.71 316.1L286.84 296.96L272.83 282.95L267.7 302.09Z" fill="#6DC2C4"/>
<path d="M248.57 307.21L262.58 321.22L281.71 316.1L267.7 302.09L248.57 307.21Z" fill="#E9DF67"/>
<path d="M72.9 253.04C68.6847 253.045 64.6436 254.722 61.6629 257.703C58.6822 260.684 57.0053 264.725 57 268.94C57.0026 273.157 58.6784 277.201 61.6594 280.184C64.6403 283.166 68.683 284.845 72.9 284.85C74.9915 284.853 77.063 284.443 78.9962 283.645C80.9293 282.847 82.6863 281.675 84.1666 280.198C85.6469 278.72 86.8215 276.966 87.6234 275.034C88.4253 273.102 88.8387 271.032 88.84 268.94C88.8347 264.725 87.1579 260.684 84.1772 257.703C81.1965 254.722 77.1553 253.045 72.94 253.04H72.9ZM72.94 248.04C78.483 248.04 83.7991 250.242 87.7186 254.161C91.6381 258.081 93.84 263.397 93.84 268.94C93.84 274.484 91.6384 279.801 87.7192 283.722C83.8 287.643 78.4839 289.847 72.94 289.85C70.1915 289.854 67.4693 289.316 64.9289 288.267C62.3885 287.218 60.0799 285.678 58.135 283.736C56.1902 281.794 54.6472 279.488 53.5945 276.949C52.5418 274.41 52 271.688 52 268.94C52 263.397 54.202 258.081 58.1215 254.161C62.041 250.242 67.357 248.04 72.9 248.04H72.94Z" fill="#744593"/>
<path d="M250.36 141.68C248.256 141.693 246.241 142.535 244.753 144.023C243.265 145.511 242.423 147.525 242.41 149.63C242.41 151.743 243.246 153.77 244.735 155.269C246.225 156.768 248.247 157.617 250.36 157.63C252.482 157.63 254.517 156.787 256.017 155.287C257.517 153.786 258.36 151.751 258.36 149.63C258.347 147.517 257.498 145.495 255.999 144.005C254.5 142.516 252.473 141.68 250.36 141.68ZM250.36 139.18C251.735 139.176 253.097 139.443 254.368 139.967C255.64 140.49 256.795 141.259 257.769 142.23C258.742 143.201 259.515 144.354 260.042 145.624C260.569 146.894 260.84 148.255 260.84 149.63C260.841 151.003 260.572 152.363 260.047 153.632C259.523 154.901 258.753 156.054 257.783 157.025C256.812 157.997 255.66 158.768 254.391 159.293C253.123 159.819 251.763 160.09 250.39 160.09C249.017 160.09 247.657 159.819 246.389 159.293C245.12 158.768 243.968 157.997 242.997 157.025C242.027 156.054 241.257 154.901 240.733 153.632C240.208 152.363 239.939 151.003 239.94 149.63C239.94 146.858 241.041 144.2 243.001 142.24C244.96 140.281 247.618 139.18 250.39 139.18H250.36Z" fill="#744593"/>
<path d="M345.54 313.25H381.73V349.44L345.54 313.25Z" stroke="#744593" stroke-width="2" stroke-miterlimit="10"/>
<path d="M31.1299 251C31.1299 257.36 25.1299 257.36 25.1299 263.72C25.1299 270.08 31.1299 270.08 31.1299 276.44C31.1299 282.8 25.1299 282.8 25.1299 289.16C25.1299 295.52 31.1299 295.52 31.1299 301.88C31.1299 308.24 25.1299 308.24 25.1299 314.6C25.1299 320.96 31.1299 320.96 31.1299 327.32C31.1299 333.68 25.1299 333.68 25.1299 340.05C25.1299 346.42 31.1299 346.41 31.1299 352.78" stroke="#E9DF67" stroke-width="2" stroke-miterlimit="10" stroke-linecap="round"/>
<path d="M19.0596 251C19.0596 257.36 13.0596 257.36 13.0596 263.72C13.0596 270.08 19.0596 270.08 19.0596 276.44C19.0596 282.8 13.0596 282.8 13.0596 289.16C13.0596 295.52 19.0596 295.52 19.0596 301.88C19.0596 308.24 13.0596 308.24 13.0596 314.6C13.0596 320.96 19.0596 320.96 19.0596 327.32C19.0596 333.68 13.0596 333.68 13.0596 340.05C13.0596 346.42 19.0596 346.41 19.0596 352.78" stroke="#E9DF67" stroke-width="2" stroke-miterlimit="10" stroke-linecap="round"/>
<path d="M7 251C7 257.36 1 257.36 1 263.72C1 270.08 7 270.08 7 276.44C7 282.8 1 282.8 1 289.16C1 295.52 7 295.52 7 301.88C7 308.24 1 308.24 1 314.6C1 320.96 7 320.96 7 327.32C7 333.68 1 333.68 1 340.05C1 346.42 7 346.41 7 352.78" stroke="#E9DF67" stroke-width="2" stroke-miterlimit="10" stroke-linecap="round"/>
</svg>
