<svg width="159" height="159" viewBox="0 0 159 159" fill="none" xmlns="http://www.w3.org/2000/svg">
<path d="M106.797 47.2437L94.8746 15.0231C89.5933 0.750688 69.4067 0.750671 64.1254 15.0231L52.2027 47.2437C51.3526 49.5412 49.5412 51.3526 47.2437 52.2027L15.0231 64.1254C0.750688 69.4067 0.750671 89.5933 15.0231 94.8746L47.2437 106.797C49.5412 107.647 51.3526 109.459 52.2027 111.756L64.1254 143.977C69.4067 158.249 89.5933 158.249 94.8746 143.977L106.797 111.756C107.647 109.459 109.459 107.647 111.756 106.797L143.977 94.8746C158.249 89.5933 158.249 69.4067 143.977 64.1254L111.756 52.2027C109.459 51.3526 107.647 49.5412 106.797 47.2437Z" fill="#6DC2C4" stroke="white" stroke-width="8"/>
</svg>
